<?xml version="1.0" encoding="utf-8"?>
<!-- Generator: Adobe Illustrator 15.0.2, SVG Export Plug-In . SVG Version: 6.00 Build 0)  -->
<!DOCTYPE svg PUBLIC "-//W3C//DTD SVG 1.1//EN" "http://www.w3.org/Graphics/SVG/1.1/DTD/svg11.dtd">
<svg version="1.1" id="Layer_1" xmlns="http://www.w3.org/2000/svg" xmlns:xlink="http://www.w3.org/1999/xlink" x="0px" y="0px"
	 width="512px" height="682.667px" viewBox="0 0 512 682.667" enable-background="new 0 0 512 682.667" xml:space="preserve">
<g>
	<path d="M26.323,679.417c5.291,2.188,10.844,3.25,16.344,3.25c11.094,0,22.021-4.354,30.166-12.5L256,487l183.167,183.167
		c8.146,8.146,19.083,12.5,30.166,12.5c5.5,0,11.042-1.062,16.292-3.25C501.583,672.812,512,657.25,512,640V42.667
		C512,19.114,492.875,0,469.333,0H42.667C19.114,0,0,19.114,0,42.667V640C0,657.25,10.406,672.812,26.323,679.417z M256,426.667
		L42.667,640V170.667h426.666V640L256,426.667z M469.333,42.667V128H42.667V42.667H469.333z"/>
</g>
</svg>
