<?xml version="1.0" encoding="utf-8"?>
<!-- Generator: Adobe Illustrator 18.1.1, SVG Export Plug-In . SVG Version: 6.00 Build 0)  -->
<!DOCTYPE svg PUBLIC "-//W3C//DTD SVG 1.1//EN" "http://www.w3.org/Graphics/SVG/1.1/DTD/svg11.dtd">
<svg version="1.1" id="Layer_1" xmlns="http://www.w3.org/2000/svg" xmlns:xlink="http://www.w3.org/1999/xlink" x="0px" y="0px"
	 viewBox="0 0 100 100" enable-background="new 0 0 100 100" xml:space="preserve">
<g>
	<path d="M92,8v84H8V8H92 M97,0H3C1.3,0,0,1.3,0,3v94c0,1.7,1.3,3,3,3h94c1.7,0,3-1.3,3-3V3C100,1.3,98.7,0,97,0L97,0z"/>
</g>
<g>
	<path d="M86.7,13.3v73.3H13.3V13.3H86.7 M88.7,11.3H11.3v77.3h77.3V11.3L88.7,11.3z"/>
</g>
<g>
	<circle fill="#FFFFFF" cx="8.6" cy="-0.1" r="2.9"/>
	<circle fill="#FFFFFF" cx="17.8" cy="-0.1" r="2.9"/>
	<circle fill="#FFFFFF" cx="27" cy="-0.1" r="2.9"/>
	<circle fill="#FFFFFF" cx="36.2" cy="-0.1" r="2.9"/>
	<circle fill="#FFFFFF" cx="45.5" cy="-0.1" r="2.9"/>
	<circle fill="#FFFFFF" cx="54.7" cy="-0.1" r="2.9"/>
	<circle fill="#FFFFFF" cx="63.9" cy="-0.1" r="2.9"/>
	<circle fill="#FFFFFF" cx="73.1" cy="-0.1" r="2.9"/>
	<circle fill="#FFFFFF" cx="82.4" cy="-0.1" r="2.9"/>
	<circle fill="#FFFFFF" cx="91.6" cy="-0.1" r="2.9"/>
</g>
<g>
	<circle fill="#FFFFFF" cx="8.6" cy="99.9" r="2.9"/>
	<circle fill="#FFFFFF" cx="17.8" cy="99.9" r="2.9"/>
	<circle fill="#FFFFFF" cx="27" cy="99.9" r="2.9"/>
	<circle fill="#FFFFFF" cx="36.2" cy="99.9" r="2.9"/>
	<circle fill="#FFFFFF" cx="45.5" cy="99.9" r="2.9"/>
	<circle fill="#FFFFFF" cx="54.7" cy="99.9" r="2.9"/>
	<circle fill="#FFFFFF" cx="63.9" cy="99.9" r="2.9"/>
	<circle fill="#FFFFFF" cx="73.1" cy="99.9" r="2.9"/>
	<circle fill="#FFFFFF" cx="82.4" cy="99.9" r="2.9"/>
	<circle fill="#FFFFFF" cx="91.6" cy="99.9" r="2.9"/>
</g>
<g>
	<circle fill="#FFFFFF" cx="0.1" cy="91.4" r="2.9"/>
	<circle fill="#FFFFFF" cx="0.1" cy="82.2" r="2.9"/>
	<circle fill="#FFFFFF" cx="0.1" cy="73" r="2.9"/>
	<circle fill="#FFFFFF" cx="0.1" cy="63.8" r="2.9"/>
	<circle fill="#FFFFFF" cx="0.1" cy="54.5" r="2.9"/>
	<circle fill="#FFFFFF" cx="0.1" cy="45.3" r="2.9"/>
	<circle fill="#FFFFFF" cx="0.1" cy="36.1" r="2.9"/>
	<circle fill="#FFFFFF" cx="0.1" cy="26.9" r="2.9"/>
	<circle fill="#FFFFFF" cx="0.1" cy="17.6" r="2.9"/>
	<circle fill="#FFFFFF" cx="0.1" cy="8.4" r="2.9"/>
</g>
<g>
	<circle fill="#FFFFFF" cx="100.1" cy="91.4" r="2.9"/>
	<circle fill="#FFFFFF" cx="100.1" cy="82.2" r="2.9"/>
	<circle fill="#FFFFFF" cx="100.1" cy="73" r="2.9"/>
	<circle fill="#FFFFFF" cx="100.1" cy="63.8" r="2.9"/>
	<circle fill="#FFFFFF" cx="100.1" cy="54.5" r="2.9"/>
	<circle fill="#FFFFFF" cx="100.1" cy="45.3" r="2.9"/>
	<circle fill="#FFFFFF" cx="100.1" cy="36.1" r="2.9"/>
	<circle fill="#FFFFFF" cx="100.1" cy="26.9" r="2.9"/>
	<circle fill="#FFFFFF" cx="100.1" cy="17.6" r="2.9"/>
	<circle fill="#FFFFFF" cx="100.1" cy="8.4" r="2.9"/>
</g>
<circle fill="#FFFFFF" cx="-287.4" cy="20.9" r="2.9"/>
</svg>
