<?xml version="1.0" encoding="utf-8"?>
<!-- Generator: Adobe Illustrator 19.0.0, SVG Export Plug-In . SVG Version: 6.00 Build 0)  -->
<!DOCTYPE svg PUBLIC "-//W3C//DTD SVG 1.1//EN" "http://www.w3.org/Graphics/SVG/1.1/DTD/svg11.dtd">
<svg version="1.1" id="Layer_1" xmlns="http://www.w3.org/2000/svg" xmlns:xlink="http://www.w3.org/1999/xlink" x="0px" y="0px"
	 viewBox="0 0 100 100" enable-background="new 0 0 100 100" xml:space="preserve">
<g>
	<path d="M69.8,29.8v40.5H30.2V29.8H69.8 M75,24.5H25v50.9h50V24.5L75,24.5z"/>
</g>
<circle fill="#FFFFFF" cx="-287.4" cy="20.9" r="2.9"/>
<path d="M94.2,84.8c0-3.2,2.6-5.9,5.8-6v-5.5c-3.2-0.1-5.8-2.7-5.8-6s2.6-5.9,5.8-6v-5.5c-3.2-0.1-5.8-2.7-5.8-6s2.6-5.9,5.8-6v-5.5
	c-3.2-0.1-5.8-2.7-5.8-6s2.6-5.9,5.8-6v-5.5c-3.2-0.1-5.8-2.7-5.8-6s2.6-5.9,5.8-6V3c0-1.7-1.3-3-3-3h-5.9c-0.1,3.2-2.7,5.8-6,5.8
	s-5.9-2.6-6-5.8h-5.5c-0.1,3.2-2.7,5.8-6,5.8s-5.9-2.6-6-5.8h-5.5c-0.1,3.2-2.7,5.8-6,5.8s-5.9-2.6-6-5.8h-5.5
	c-0.1,3.2-2.7,5.8-6,5.8s-5.9-2.6-6-5.8h-5.5c-0.1,3.2-2.7,5.8-6,5.8S9.3,3.2,9.3,0H3C1.3,0,0,1.3,0,3v5.9c0.1,0,0.1,0,0.2,0
	c3.3,0,6,2.7,6,6s-2.7,6-6,6c-0.1,0-0.1,0-0.2,0v5.5c0.1,0,0.1,0,0.2,0c3.3,0,6,2.7,6,6s-2.7,6-6,6c-0.1,0-0.1,0-0.2,0v5.5
	c0.1,0,0.1,0,0.2,0c3.3,0,6,2.7,6,6s-2.7,6-6,6c-0.1,0-0.1,0-0.2,0v5.5c0.1,0,0.1,0,0.2,0c3.3,0,6,2.7,6,6s-2.7,6-6,6
	c-0.1,0-0.1,0-0.2,0v5.5c0.1,0,0.1,0,0.2,0c3.3,0,6,2.7,6,6s-2.7,6-6,6c-0.1,0-0.1,0-0.2,0V97c0,1.7,1.3,3,3,3h6.3
	c0.4-2.9,2.9-5.2,5.9-5.2s5.5,2.2,5.9,5.2h5.6c0.4-2.9,2.9-5.2,5.9-5.2s5.5,2.2,5.9,5.2h5.6c0.4-2.9,2.9-5.2,5.9-5.2
	s5.5,2.2,5.9,5.2h5.6c0.4-2.9,2.9-5.2,5.9-5.2s5.5,2.2,5.9,5.2h5.6c0.4-2.9,2.9-5.2,5.9-5.2s5.5,2.2,5.9,5.2H97c1.7,0,3-1.3,3-3
	v-6.2C96.8,90.7,94.2,88,94.2,84.8z M85,85H15V15h70V85z"/>
</svg>
