<?xml version="1.0" encoding="utf-8"?>
<!-- Generator: Adobe Illustrator 19.0.0, SVG Export Plug-In . SVG Version: 6.00 Build 0)  -->
<!DOCTYPE svg PUBLIC "-//W3C//DTD SVG 1.1//EN" "http://www.w3.org/Graphics/SVG/1.1/DTD/svg11.dtd">
<svg version="1.1" id="Layer_1" xmlns="http://www.w3.org/2000/svg" xmlns:xlink="http://www.w3.org/1999/xlink" x="0px" y="0px"
	 viewBox="0 0 100 100" enable-background="new 0 0 100 100" xml:space="preserve">
<path d="M86.7,13.3v73.3H13.3V13.3H86.7 M88.7,11.3H11.3v77.3h77.3V11.3L88.7,11.3z"/>
<path d="M97.2,91.4c0-1.6,1.3-2.9,2.8-2.9v-3.4c-1.6,0-2.8-1.3-2.8-2.9c0-1.6,1.3-2.9,2.8-2.9v-3.4c-1.6,0-2.8-1.3-2.8-2.9
	c0-1.6,1.3-2.9,2.8-2.9v-3.4c-1.6,0-2.8-1.3-2.8-2.9s1.3-2.9,2.8-2.9v-3.4c-1.6,0-2.8-1.3-2.8-2.9s1.3-2.9,2.8-2.9v-3.4
	c-1.6,0-2.8-1.3-2.8-2.9s1.3-2.9,2.8-2.9V39c-1.6,0-2.8-1.3-2.8-2.9s1.3-2.9,2.8-2.9v-3.4c-1.6,0-2.8-1.3-2.8-2.9S98.4,24,100,24
	v-3.4c-1.6,0-2.8-1.3-2.8-2.9s1.3-2.9,2.8-2.9v-3.4c-1.6,0-2.8-1.3-2.8-2.9c0-1.6,1.3-2.9,2.8-2.9V3c0-1.7-1.3-3-3-3h-2.5
	c0,1.6-1.3,2.8-2.9,2.8S88.7,1.6,88.7,0h-3.4c0,1.6-1.3,2.8-2.9,2.8c-1.6,0-2.9-1.3-2.9-2.8H76c0,1.6-1.3,2.8-2.9,2.8
	c-1.6,0-2.9-1.3-2.9-2.8h-3.4c0,1.6-1.3,2.8-2.9,2.8S61.1,1.6,61,0h-3.4c0,1.6-1.3,2.8-2.9,2.8S51.8,1.6,51.8,0h-3.4
	c0,1.6-1.3,2.8-2.9,2.8S42.6,1.6,42.6,0h-3.4c0,1.6-1.3,2.8-2.9,2.8S33.4,1.6,33.3,0h-3.4c0,1.6-1.3,2.8-2.9,2.8S24.2,1.6,24.1,0
	h-3.4c0,1.6-1.3,2.8-2.9,2.8S14.9,1.6,14.9,0h-3.4c0,1.6-1.3,2.8-2.9,2.8S5.7,1.6,5.7,0H3C1.3,0,0,1.3,0,3v2.5c0,0,0.1,0,0.1,0
	C1.7,5.5,3,6.8,3,8.4c0,1.6-1.3,2.9-2.9,2.9c0,0-0.1,0-0.1,0v3.4c0,0,0.1,0,0.1,0C1.7,14.7,3,16,3,17.6s-1.3,2.9-2.9,2.9
	c0,0-0.1,0-0.1,0V24c0,0,0.1,0,0.1,0c1.6,0,2.9,1.3,2.9,2.9s-1.3,2.9-2.9,2.9c0,0-0.1,0-0.1,0v3.4c0,0,0.1,0,0.1,0
	c1.6,0,2.9,1.3,2.9,2.9S1.7,39,0.1,39c0,0-0.1,0-0.1,0v3.4c0,0,0.1,0,0.1,0c1.6,0,2.9,1.3,2.9,2.9s-1.3,2.9-2.9,2.9c0,0-0.1,0-0.1,0
	v3.4c0,0,0.1,0,0.1,0c1.6,0,2.9,1.3,2.9,2.9s-1.3,2.9-2.9,2.9c0,0-0.1,0-0.1,0v3.4c0,0,0.1,0,0.1,0c1.6,0,2.9,1.3,2.9,2.9
	s-1.3,2.9-2.9,2.9c0,0-0.1,0-0.1,0v3.4c0,0,0.1,0,0.1,0C1.7,70.1,3,71.4,3,73c0,1.6-1.3,2.9-2.9,2.9c0,0-0.1,0-0.1,0v3.4
	c0,0,0.1,0,0.1,0c1.6,0,2.9,1.3,2.9,2.9c0,1.6-1.3,2.9-2.9,2.9c0,0-0.1,0-0.1,0v3.4c0,0,0.1,0,0.1,0c1.6,0,2.9,1.3,2.9,2.9
	c0,1.6-1.3,2.9-2.9,2.9c0,0-0.1,0-0.1,0V97c0,1.7,1.3,3,3,3h2.7c0,0,0-0.1,0-0.1C5.7,98.3,7,97,8.6,97s2.9,1.3,2.9,2.9
	c0,0,0,0.1,0,0.1h3.4c0,0,0-0.1,0-0.1c0-1.6,1.3-2.9,2.9-2.9s2.9,1.3,2.9,2.9c0,0,0,0.1,0,0.1h3.4c0,0,0-0.1,0-0.1
	c0-1.6,1.3-2.9,2.9-2.9s2.9,1.3,2.9,2.9c0,0,0,0.1,0,0.1h3.4c0,0,0-0.1,0-0.1c0-1.6,1.3-2.9,2.9-2.9s2.9,1.3,2.9,2.9
	c0,0,0,0.1,0,0.1h3.4c0,0,0-0.1,0-0.1c0-1.6,1.3-2.9,2.9-2.9s2.9,1.3,2.9,2.9c0,0,0,0.1,0,0.1h3.4c0,0,0-0.1,0-0.1
	c0-1.6,1.3-2.9,2.9-2.9s2.9,1.3,2.9,2.9c0,0,0,0.1,0,0.1H61c0,0,0-0.1,0-0.1c0-1.6,1.3-2.9,2.9-2.9s2.9,1.3,2.9,2.9c0,0,0,0.1,0,0.1
	h3.4c0,0,0-0.1,0-0.1c0-1.6,1.3-2.9,2.9-2.9c1.6,0,2.9,1.3,2.9,2.9c0,0,0,0.1,0,0.1h3.4c0,0,0-0.1,0-0.1c0-1.6,1.3-2.9,2.9-2.9
	c1.6,0,2.9,1.3,2.9,2.9c0,0,0,0.1,0,0.1h3.4c0,0,0-0.1,0-0.1c0-1.6,1.3-2.9,2.9-2.9s2.9,1.3,2.9,2.9c0,0,0,0.1,0,0.1H97
	c1.7,0,3-1.3,3-3v-2.7C98.4,94.3,97.2,93,97.2,91.4z M92,92H8V8h84V92z"/>
<circle fill="#FFFFFF" cx="-287.4" cy="20.9" r="2.9"/>
<g>
</g>
<g>
</g>
<g>
</g>
<g>
</g>
<g>
</g>
<g>
</g>
<g>
</g>
<g>
</g>
<g>
</g>
<g>
</g>
<g>
</g>
<g>
</g>
<g>
</g>
<g>
</g>
<g>
</g>
</svg>
